<mxfile host="app.diagrams.net" modified="2020-04-08T17:15:16.062Z" agent="5.0 (Windows NT 10.0; Win64; x64) AppleWebKit/537.36 (KHTML, like Gecko) Chrome/80.0.3987.162 Safari/537.36" etag="oY-dmYaNRP4n2Vgh4J4C" version="12.9.10" type="github">
  <diagram id="RG4r3qgYTS3gW8cFkQqp" name="Page-1">
    <mxGraphModel dx="770" dy="738" grid="1" gridSize="10" guides="1" tooltips="1" connect="1" arrows="1" fold="1" page="1" pageScale="1" pageWidth="850" pageHeight="1100" math="0" shadow="0">
      <root>
        <mxCell id="0" />
        <mxCell id="1" parent="0" />
        <mxCell id="oz18HqrXeAixi6hqKe3B-13" value="" style="edgeStyle=orthogonalEdgeStyle;rounded=0;orthogonalLoop=1;jettySize=auto;html=1;strokeWidth=2;fontSize=19;entryX=0;entryY=0.5;entryDx=0;entryDy=0;" edge="1" parent="1" source="oz18HqrXeAixi6hqKe3B-1" target="oz18HqrXeAixi6hqKe3B-2">
          <mxGeometry relative="1" as="geometry">
            <mxPoint x="220" y="320" as="targetPoint" />
          </mxGeometry>
        </mxCell>
        <mxCell id="oz18HqrXeAixi6hqKe3B-1" value="Node JS Apps" style="rounded=0;whiteSpace=wrap;html=1;fillColor=#dae8fc;strokeColor=#6c8ebf;fontSize=19;" vertex="1" parent="1">
          <mxGeometry x="20" y="290" width="120" height="60" as="geometry" />
        </mxCell>
        <mxCell id="oz18HqrXeAixi6hqKe3B-10" value="" style="edgeStyle=orthogonalEdgeStyle;rounded=0;orthogonalLoop=1;jettySize=auto;html=1;strokeWidth=2;fontSize=19;" edge="1" parent="1" source="oz18HqrXeAixi6hqKe3B-2" target="oz18HqrXeAixi6hqKe3B-4">
          <mxGeometry relative="1" as="geometry" />
        </mxCell>
        <mxCell id="oz18HqrXeAixi6hqKe3B-2" value="Have to install dependencies before running the app" style="rounded=0;whiteSpace=wrap;html=1;fontSize=16;" vertex="1" parent="1">
          <mxGeometry x="180" y="200" width="200" height="70" as="geometry" />
        </mxCell>
        <mxCell id="oz18HqrXeAixi6hqKe3B-8" value="" style="edgeStyle=orthogonalEdgeStyle;rounded=0;orthogonalLoop=1;jettySize=auto;html=1;fontSize=19;strokeWidth=2;" edge="1" parent="1" source="oz18HqrXeAixi6hqKe3B-3" target="oz18HqrXeAixi6hqKe3B-6">
          <mxGeometry relative="1" as="geometry" />
        </mxCell>
        <mxCell id="oz18HqrXeAixi6hqKe3B-3" value="Have to run a command to start up the server" style="rounded=0;whiteSpace=wrap;html=1;fontSize=16;" vertex="1" parent="1">
          <mxGeometry x="180" y="370" width="200" height="70" as="geometry" />
        </mxCell>
        <mxCell id="oz18HqrXeAixi6hqKe3B-11" value="" style="edgeStyle=orthogonalEdgeStyle;rounded=0;orthogonalLoop=1;jettySize=auto;html=1;strokeWidth=2;fontSize=19;" edge="1" parent="1" source="oz18HqrXeAixi6hqKe3B-4" target="oz18HqrXeAixi6hqKe3B-5">
          <mxGeometry relative="1" as="geometry" />
        </mxCell>
        <mxCell id="oz18HqrXeAixi6hqKe3B-4" value="Install deps by running &lt;b&gt;&#39;npm install&#39;&lt;/b&gt;" style="rounded=0;whiteSpace=wrap;html=1;fontSize=16;" vertex="1" parent="1">
          <mxGeometry x="425" y="200" width="200" height="70" as="geometry" />
        </mxCell>
        <mxCell id="oz18HqrXeAixi6hqKe3B-5" value="Assumes npm is installed" style="rounded=0;whiteSpace=wrap;html=1;fontSize=19;fillColor=#fff2cc;strokeColor=#d6b656;" vertex="1" parent="1">
          <mxGeometry x="670" y="200" width="160" height="70" as="geometry" />
        </mxCell>
        <mxCell id="oz18HqrXeAixi6hqKe3B-9" value="" style="edgeStyle=orthogonalEdgeStyle;rounded=0;orthogonalLoop=1;jettySize=auto;html=1;fontSize=19;strokeWidth=2;" edge="1" parent="1" source="oz18HqrXeAixi6hqKe3B-6" target="oz18HqrXeAixi6hqKe3B-7">
          <mxGeometry relative="1" as="geometry" />
        </mxCell>
        <mxCell id="oz18HqrXeAixi6hqKe3B-6" value="&lt;span&gt;Start server by running&amp;nbsp;&lt;/span&gt;&lt;b&gt;&#39;npm start&#39;&lt;/b&gt;" style="rounded=0;whiteSpace=wrap;html=1;fontSize=16;" vertex="1" parent="1">
          <mxGeometry x="425" y="370" width="200" height="70" as="geometry" />
        </mxCell>
        <mxCell id="oz18HqrXeAixi6hqKe3B-7" value="&#xa;&#xa;&lt;!--StartFragment--&gt;&lt;span style=&quot;font-family: Helvetica; font-size: 19px; font-style: normal; font-variant-ligatures: normal; font-variant-caps: normal; font-weight: 400; letter-spacing: normal; orphans: 2; text-align: center; text-indent: 0px; text-transform: none; widows: 2; word-spacing: 0px; -webkit-text-stroke-width: 0px; text-decoration-style: initial; text-decoration-color: initial; float: none; display: inline !important;&quot;&gt;Assumes npm is installed&lt;/span&gt;&lt;!--EndFragment--&gt;&#xa;&#xa;" style="rounded=0;whiteSpace=wrap;html=1;fontSize=19;fillColor=#fff2cc;strokeColor=#d6b656;" vertex="1" parent="1">
          <mxGeometry x="670" y="370" width="160" height="70" as="geometry" />
        </mxCell>
        <mxCell id="oz18HqrXeAixi6hqKe3B-14" value="" style="edgeStyle=orthogonalEdgeStyle;rounded=0;orthogonalLoop=1;jettySize=auto;html=1;strokeWidth=2;fontSize=19;entryX=0;entryY=0.5;entryDx=0;entryDy=0;exitX=1;exitY=0.5;exitDx=0;exitDy=0;" edge="1" parent="1" source="oz18HqrXeAixi6hqKe3B-1" target="oz18HqrXeAixi6hqKe3B-3">
          <mxGeometry relative="1" as="geometry">
            <mxPoint x="150" y="330" as="sourcePoint" />
            <mxPoint x="190" y="245" as="targetPoint" />
          </mxGeometry>
        </mxCell>
      </root>
    </mxGraphModel>
  </diagram>
</mxfile>
